<svg width="76" height="20" viewBox="0 0 76 20" fill="none" xmlns="http://www.w3.org/2000/svg">
<circle cx="9.40016" cy="9.40005" r="6.0322" transform="rotate(-39.1092 9.40016 9.40005)" stroke="black" stroke-width="1.3"/>
<path d="M13.6152 14.5852L16.8937 18.618" stroke="black" stroke-width="1.3" stroke-linecap="round"/>
<path d="M33.1537 15.7543C32.4501 15.7543 31.7736 15.6415 31.1242 15.416C30.4838 15.1815 29.9877 14.8839 29.6359 14.5231L30.0283 13.7519C30.362 14.0766 30.8085 14.3517 31.3677 14.5772C31.936 14.7937 32.5313 14.9019 33.1537 14.9019C33.749 14.9019 34.2315 14.8297 34.6014 14.6854C34.9802 14.5321 35.2553 14.3291 35.4267 14.0766C35.6071 13.824 35.6973 13.5444 35.6973 13.2377C35.6973 12.8679 35.589 12.5702 35.3726 12.3447C35.1651 12.1193 34.89 11.9434 34.5472 11.8171C34.2045 11.6818 33.8257 11.5645 33.4107 11.4653C32.9958 11.3661 32.5809 11.2624 32.166 11.1541C31.7511 11.0369 31.3677 10.8835 31.016 10.6941C30.6732 10.5047 30.3936 10.2566 30.1771 9.94996C29.9696 9.63426 29.8659 9.22386 29.8659 8.71874C29.8659 8.24971 29.9877 7.82126 30.2312 7.43341C30.4838 7.03653 30.8671 6.72083 31.3813 6.48632C31.8954 6.24278 32.5538 6.12101 33.3566 6.12101C33.8888 6.12101 34.4165 6.19768 34.9396 6.35102C35.4628 6.49534 35.9138 6.69828 36.2926 6.95986L35.9544 7.75812C35.5485 7.48753 35.1155 7.28909 34.6555 7.16281C34.2045 7.03653 33.767 6.97339 33.3431 6.97339C32.7748 6.97339 32.3058 7.05006 31.936 7.2034C31.5662 7.35674 31.2911 7.56419 31.1107 7.82577C30.9393 8.07833 30.8536 8.36697 30.8536 8.69168C30.8536 9.0615 30.9573 9.35916 31.1648 9.58466C31.3813 9.81015 31.6609 9.98604 32.0036 10.1123C32.3554 10.2386 32.7388 10.3513 33.1537 10.4506C33.5686 10.5498 33.979 10.658 34.3849 10.7753C34.7998 10.8925 35.1786 11.0459 35.5214 11.2353C35.8732 11.4157 36.1528 11.6592 36.3602 11.9659C36.5767 12.2726 36.685 12.674 36.685 13.1701C36.685 13.6301 36.5587 14.0585 36.3061 14.4554C36.0536 14.8433 35.6657 15.159 35.1426 15.4025C34.6284 15.637 33.9655 15.7543 33.1537 15.7543ZM41.6807 15.7407C40.941 15.7407 40.2916 15.5874 39.7324 15.2807C39.1731 14.965 38.7357 14.5366 38.42 13.9954C38.1043 13.4452 37.9464 12.8183 37.9464 12.1147C37.9464 11.4112 38.0952 10.7888 38.3929 10.2476C38.6996 9.70642 39.1145 9.28249 39.6376 8.97581C40.1698 8.66011 40.7651 8.50227 41.4236 8.50227C42.0911 8.50227 42.6819 8.6556 43.196 8.96228C43.7192 9.25994 44.1296 9.68387 44.4272 10.2341C44.7249 10.7753 44.8737 11.4022 44.8737 12.1147C44.8737 12.1598 44.8692 12.2094 44.8602 12.2636C44.8602 12.3087 44.8602 12.3583 44.8602 12.4124H38.677V11.6953H44.346L43.9672 11.9794C43.9672 11.4653 43.8545 11.0098 43.629 10.6129C43.4125 10.207 43.1148 9.89133 42.736 9.66583C42.3572 9.44034 41.9197 9.32759 41.4236 9.32759C40.9365 9.32759 40.499 9.44034 40.1112 9.66583C39.7233 9.89133 39.4212 10.207 39.2047 10.6129C38.9882 11.0188 38.88 11.4833 38.88 12.0065V12.1553C38.88 12.6965 38.9972 13.1746 39.2318 13.5895C39.4753 13.9954 39.809 14.3156 40.233 14.5501C40.6659 14.7756 41.1575 14.8884 41.7077 14.8884C42.1407 14.8884 42.5421 14.8117 42.9119 14.6584C43.2907 14.505 43.6154 14.2705 43.886 13.9548L44.4272 14.5772C44.1115 14.956 43.7146 15.2446 43.2366 15.4431C42.7676 15.6415 42.2489 15.7407 41.6807 15.7407ZM51.0821 15.6731V14.1036L51.0415 13.8466V11.2218C51.0415 10.6174 50.8701 10.1529 50.5274 9.82819C50.1937 9.50348 49.6931 9.34112 49.0256 9.34112C48.5656 9.34112 48.1281 9.41779 47.7132 9.57113C47.2983 9.72446 46.9465 9.92741 46.6579 10.18L46.2249 9.46289C46.5857 9.15621 47.0186 8.92169 47.5238 8.75933C48.0289 8.58795 48.5611 8.50227 49.1203 8.50227C50.0403 8.50227 50.7484 8.73227 51.2445 9.19229C51.7496 9.64328 52.0021 10.3333 52.0021 11.2624V15.6731H51.0821ZM48.6332 15.7407C48.101 15.7407 47.6365 15.6551 47.2396 15.4837C46.8518 15.3033 46.5541 15.0597 46.3467 14.7531C46.1392 14.4374 46.0355 14.0766 46.0355 13.6707C46.0355 13.3009 46.1212 12.9671 46.2925 12.6695C46.4729 12.3628 46.7616 12.1193 47.1585 11.9389C47.5644 11.7494 48.1055 11.6547 48.782 11.6547H51.2309V12.3718H48.8091C48.1236 12.3718 47.6455 12.4936 47.3749 12.7371C47.1134 12.9807 46.9826 13.2828 46.9826 13.6436C46.9826 14.0495 47.1404 14.3742 47.4561 14.6178C47.7718 14.8613 48.2138 14.9831 48.782 14.9831C49.3232 14.9831 49.7878 14.8613 50.1756 14.6178C50.5725 14.3652 50.8611 14.0044 51.0415 13.5354L51.258 14.1983C51.0776 14.6674 50.7619 15.0417 50.3109 15.3213C49.8689 15.6009 49.3097 15.7407 48.6332 15.7407ZM54.6113 15.6731V8.56991H55.5313V10.5047L55.4366 10.1664C55.6351 9.62524 55.9688 9.21484 56.4378 8.93522C56.9069 8.64658 57.4886 8.50227 58.1832 8.50227V9.43583C58.1471 9.43583 58.111 9.43583 58.0749 9.43583C58.0389 9.42681 58.0028 9.4223 57.9667 9.4223C57.2181 9.4223 56.6318 9.6523 56.2078 10.1123C55.7839 10.5633 55.5719 11.2082 55.5719 12.0471V15.6731H54.6113ZM62.8195 15.7407C62.1159 15.7407 61.4845 15.5874 60.9253 15.2807C60.3751 14.965 59.9421 14.5366 59.6264 13.9954C59.3107 13.4452 59.1529 12.8183 59.1529 12.1147C59.1529 11.4022 59.3107 10.7753 59.6264 10.2341C59.9421 9.69289 60.3751 9.26896 60.9253 8.96228C61.4845 8.6556 62.1159 8.50227 62.8195 8.50227C63.4238 8.50227 63.9695 8.61952 64.4566 8.85404C64.9437 9.08856 65.327 9.44034 65.6066 9.90937L64.8896 10.3964C64.646 10.0357 64.3439 9.76956 63.9831 9.59818C63.6223 9.42681 63.2299 9.34112 62.806 9.34112C62.3008 9.34112 61.8453 9.45838 61.4394 9.69289C61.0335 9.91839 60.7133 10.2386 60.4788 10.6535C60.2443 11.0684 60.127 11.5555 60.127 12.1147C60.127 12.674 60.2443 13.1611 60.4788 13.576C60.7133 13.9909 61.0335 14.3156 61.4394 14.5501C61.8453 14.7756 62.3008 14.8884 62.806 14.8884C63.2299 14.8884 63.6223 14.8027 63.9831 14.6313C64.3439 14.4599 64.646 14.1983 64.8896 13.8466L65.6066 14.3336C65.327 14.7937 64.9437 15.1454 64.4566 15.389C63.9695 15.6235 63.4238 15.7407 62.8195 15.7407ZM71.014 8.50227C71.5913 8.50227 72.0964 8.61501 72.5294 8.84051C72.9714 9.05699 73.3141 9.39073 73.5577 9.84172C73.8102 10.2927 73.9365 10.861 73.9365 11.5465V15.6731H72.9759V11.6412C72.9759 10.8925 72.7865 10.3288 72.4076 9.94996C72.0378 9.56211 71.5146 9.36818 70.8382 9.36818C70.333 9.36818 69.8911 9.47191 69.5122 9.67936C69.1424 9.8778 68.8538 10.1709 68.6463 10.5588C68.4479 10.9376 68.3487 11.3977 68.3487 11.9389V15.6731H67.388V5.63393H68.3487V10.5182L68.1592 10.1529C68.3847 9.63877 68.7455 9.23739 69.2416 8.94875C69.7377 8.65109 70.3285 8.50227 71.014 8.50227Z" fill="black"/>
</svg>
